#!OML:ASF F:\VICON\USERDATA\INSTALL\Justin_Nancy\Justin_Nancy.ASF
:FULLY-SPECIFIED
:DEGREES
211
root 6.0051 16.7942 8.253 106.319 85.9101 101.167
lowerback 9.23951 -1.83112 -6.2454
upperback 0.87115 -2.95813 1.87008
thorax -3.85375 -1.34323 5.83935
lowerneck -16.2415 -3.24897 -8.91317
upperneck 21.8027 -2.75521 3.37669
head 9.78873 -1.55907 2.31454
rclavicle -3.24019e-014 9.54166e-015
rhumerus -38.2821 -13.7904 -77.923
rradius 29.0425
rwrist 6.48414
rhand -22.2595 10.6543
rfingers 7.12502
rthumb 4.15819 -19.2849
lclavicle -3.24019e-014 9.54166e-015
lhumerus -28.2092 -2.8294 90.3014
lradius 40.3516
lwrist 0.452617
lhand -19.2895 22.8534
lfingers 7.12502
lthumb 7.02572 52.7168
rfemur -37.4292 -1.95325 10.968
rtibia 22.786
rfoot -1.09054 -4.74192
rtoes 1.11903
lfemur 17.1296 -4.12236 -29.8219
ltibia 16.28
lfoot -10.4448 -5.80848
ltoes -12.0075
212
root 6.26103 16.8116 8.31918 106.613 86.5315 101.804
lowerback 9.4158 -1.89182 -5.68475
upperback 0.874308 -2.97008 2.26491
thorax -3.95417 -1.35046 5.94952
lowerneck -16.4261 -3.14539 -9.37194
upperneck 22.0925 -2.40733 3.16973
head 9.91114 -1.46102 2.36656
rclavicle -4.02539e-014 1.19271e-014
rhumerus -38.1874 -13.7724 -77.4374
rradius 28.648
rwrist 6.98538
rhand -22.6297 10.6392
rfingers 7.12502
rthumb 3.80067 -19.3066
lclavicle -4.02539e-014 1.19271e-014
lhumerus -28.498 -3.49941 90.6577
lradius 40.6077
lwrist 2.39773
lhand -20.5285 24.4892
lfingers 7.12502
lthumb 5.82958 54.389
rfemur -37.5228 -2.10455 12.073
rtibia 24.954
rfoot -0.791087 -3.61578
rtoes 1.01671
lfemur 17.3708 -4.4533 -29.1209
ltibia 17.6646
lfoot -8.47277 -6.15077
ltoes -15.4368
213
root 6.52131 16.8267 8.3889 102.002 86.6156 97.5683
lowerback 9.58986 -1.83578 -5.79831
upperback 0.893745 -2.90473 2.47019
thorax -4.02365 -1.31158 6.2338
lowerneck -16.5012 -3.03103 -9.62588
upperneck 22.1806 -2.11 2.95048
head 9.94022 -1.37005 2.37188
rclavicle 2.60408e-014 -1.59028e-014
rhumerus -38.0242 -13.7357 -77.0465
rradius 28.232
rwrist 6.8013
rhand -21.9191 10.7716
rfingers 7.12502
rthumb 4.48687 -19.1608
lclavicle 2.60408e-014 -1.59028e-014
lhumerus -28.1151 1.35433 89.9807
lradius 39.6171
lwrist -1.37076
lhand -19.6164 23.4162
lfingers 7.12502
lthumb 6.71014 53.2899
rfemur -37.2099 -1.66197 12.2119
rtibia 26.5733
rfoot -1.03426 -2.57531
rtoes -2.5618
lfemur 17.1209 -4.71864 -29.1006
ltibia 19.9325
lfoot -6.37431 -6.51573
ltoes -18.0229
214
root 6.78233 16.8564 8.46648 101.946 86.8888 97.8864
lowerback 9.71077 -1.81481 -5.65692
upperback 0.980263 -2.85318 2.66862
thorax -4.00424 -1.2883 6.36181
lowerneck -16.3517 -2.95348 -9.57307
upperneck 21.8691 -1.97785 2.70824
head 9.79006 -1.32788 2.29225
rclavicle -3.53837e-014 3.33958e-014
rhumerus -37.7981 -13.6864 -76.823
rradius 27.7645
rwrist 7.04546
rhand -21.1206 10.8414
rfingers 7.12502
rthumb 5.25793 -19.0734
lclavicle -3.53837e-014 3.33958e-014
lhumerus -28.4198 1.98139 89.8554
lradius 39.5445
lwrist -1.58973
lhand -18.9409 22.4201
lfingers 7.12502
lthumb 7.36215 52.272
rfemur -36.7903 -0.995157 12.333
rtibia 28.0035
rfoot -0.93283 -2.08788
rtoes 0.790972
lfemur 16.5405 -5.0346 -28.7043
ltibia 22.5765
lfoot -3.7169 -6.91854
ltoes -19.435
215
root 7.05054 16.8877 8.54908 103.482 87.2282 99.6126
lowerback 9.52052 -1.79107 -5.31893
upperback 1.04013 -2.76929 2.7731
thorax -3.85859 -1.25783 6.25781
lowerneck -16.1607 -2.98658 -9.44986
upperneck 21.5706 -2.04301 2.54107
head 9.65002 -1.36282 2.20206
rclavicle 3.26007e-014 -2.62396e-014
rhumerus -37.6096 -13.8091 -76.7406
rradius 27.2154
rwrist 7.72438
rhand -21.7036 10.7549
rfingers 7.12502
rthumb 4.69502 -19.1731
lclavicle 3.26007e-014 -2.62396e-014
lhumerus -28.5813 2.86203 89.5494
lradius 39.2471
lwrist -1.7639
lhand -18.9188 22.0869
lfingers 7.12502
lthumb 7.38351 51.938
rfemur -36.5156 -0.746926 12.7221
rtibia 29.3826
rfoot -0.636955 -1.95422
rtoes 7.66807
lfemur 15.587 -5.21581 -28.0514
ltibia 25.3362
lfoot -0.137597 -7.39548
ltoes -19.8773
216
root 7.31396 16.9125 8.62685 107.14 87.4046 103.109
lowerback 9.02956 -1.80482 -5.05384
upperback 0.981931 -2.74198 2.79129
thorax -3.6615 -1.25547 6.09895
lowerneck -16.4484 -3.09485 -9.61436
upperneck 21.8393 -2.16375 2.73927
head 9.81136 -1.41378 2.28387
rclavicle -2.20651e-014 1.51076e-014
rhumerus -37.4307 -14.0229 -76.7416
rradius 26.7191
rwrist 8.31412
rhand -22.7944 10.205
rfingers 7.12502
rthumb 3.64164 -19.7436
lclavicle -2.20651e-014 1.51076e-014
lhumerus -28.8225 3.42208 89.1403
lradius 39.0316
lwrist -1.32422
lhand -19.5408 22.4844
lfingers 7.12502
lthumb 6.78313 52.3558
rfemur -36.4679 -1.05665 13.2608
rtibia 30.6554
rfoot -0.733894 -1.67157
rtoes 8.17271
lfemur 14.0364 -5.3226 -27.4238
ltibia 28.2103
lfoot 4.53419 -8.01665
ltoes -19.1779
217
root 7.57776 16.9385 8.71565 113.415 87.3336 109.295
lowerback 8.56192 -1.9142 -5.17915
upperback 0.952319 -2.88 2.85942
thorax -3.40228 -1.33237 6.23361
lowerneck -16.6139 -3.09535 -10.1009
upperneck 21.9623 -2.10391 3.11152
head 9.89298 -1.38587 2.50457
rclavicle -1.25234e-014 0
rhumerus -37.324 -14.0911 -76.5522
rradius 26.5086
rwrist 8.76896
rhand -22.6966 10.2071
rfingers 7.12502
rthumb 3.7361 -19.7399
lclavicle -1.25234e-014 0
lhumerus -29.226 3.76871 88.9004
lradius 39.0004
lwrist -0.690795
lhand -20.3254 23.206
lfingers 7.12502
lthumb 6.02568 53.1003
rfemur -36.0453 -0.895205 13.5615
rtibia 31.7796
rfoot -1.60507 -1.79991
rtoes 6.89091
lfemur 12.2896 -5.28603 -26.8811
ltibia 31.2732
lfoot 9.78661 -9.13399
ltoes -16.8262
218
root 7.84285 16.9658 8.81202 118.266 87.1724 114.331
lowerback 8.31253 -1.91775 -5.63772
upperback 1.0593 -2.90901 2.98707
thorax -3.11686 -1.3544 6.61735
lowerneck -16.5561 -3.07974 -10.041
upperneck 21.7268 -2.07817 2.98099
head 9.79469 -1.38053 2.44911
rclavicle 5.02925e-014 -4.05521e-014
rhumerus -37.0553 -14.2635 -76.1884
rradius 26.2978
rwrist 8.99939
rhand -21.6608 10.4429
rfingers 7.12502
rthumb 4.73627 -19.4841
lclavicle 5.02925e-014 -4.05521e-014
lhumerus -29.4475 4.25348 88.7895
lradius 38.7025
lwrist -0.170229
lhand -20.5349 22.9518
lfingers 7.12502
lthumb 5.82336 52.8517
rfemur -35.1526 -0.470921 13.8422
rtibia 32.6338
rfoot -2.46063 -1.58719
rtoes 4.96448
lfemur 10.7077 -5.45297 -26.4682
ltibia 34.5314
lfoot 14.7155 -9.47095
ltoes -12.137
219
root 8.09116 16.9926 8.88291 127.434 87.3134 123.778
lowerback 8.48339 -1.78094 -5.38542
upperback 1.03024 -2.70988 3.00352
thorax -3.28447 -1.24996 6.48124
lowerneck -16.4658 -3.25836 -9.47924
upperneck 21.7294 -2.43346 2.74951
head 9.79125 -1.52505 2.22732
rclavicle 4.02539e-014 8.74653e-015
rhumerus -37.2155 -14.9102 -75.9569
rradius 26.2576
rwrist 9.02076
rhand -20.784 10.6054
rfingers 7.12502
rthumb 5.58291 -19.3011
lclavicle 4.02539e-014 8.74653e-015
lhumerus -29.7557 3.70673 88.5118
lradius 38.3982
lwrist 1.45358
lhand -19.9366 21.9158
lfingers 7.12502
lthumb 6.40103 51.7991
rfemur -34.1392 -0.65174 14.8058
rtibia 33.0728
rfoot -3.01428 -1.13378
rtoes -2.08951
lfemur 9.04891 -5.91751 -25.8544
ltibia 37.9993
lfoot 18.2619 -8.96994
ltoes -4.17872
220
root 8.32426 17.0406 8.92601 145.577 87.5909 141.862
lowerback 8.56821 -1.7165 -4.32008
upperback 0.7947 -2.52709 3.03976
thorax -3.65077 -1.15408 5.90359
lowerneck -16.3616 -3.47686 -9.16943
upperneck 21.9886 -2.83917 2.8011
head 9.88511 -1.68362 2.14287
rclavicle -2.59414e-014 3.57812e-014
rhumerus -37.5159 -15.8523 -75.6454
rradius 26.1829
rwrist 9.63699
rhand -20.7802 10.4863
rfingers 7.12502
rthumb 5.58659 -19.4201
lclavicle -2.59414e-014 3.57812e-014
lhumerus -30.1335 2.73595 88.4812
lradius 38.2177
lwrist 3.44585
lhand -19.9245 22.243
lfingers 7.12502
lthumb 6.41271 52.1259
rfemur -33.3038 -0.743462 16.0014
rtibia 33.0148
rfoot -3.3251 -1.77962
rtoes -6.80263
lfemur 6.79437 -6.23078 -24.8084
ltibia 41.3808
lfoot 21.9796 -8.94827
ltoes -1.93012
